<svg width="235" height="60" viewBox="0 0 235 60" fill="none" xmlns="http://www.w3.org/2000/svg">
<path d="M26.2159 33.543H33.6469L29.9809 22.125L26.2159 33.543Z" fill="white"/>
<path d="M30 0C13.432 0 0 13.431 0 30C0 46.569 13.432 60 30 60C46.568 60 60 46.568 60 30C60 13.431 46.568 0 30 0ZM37.167 44.508L35.253 38.543H24.567L22.6 44.508H16.258L26.616 15.492H33.475L43.741 44.508H37.167Z" fill="white"/>
<path d="M83.4453 20.6738L74.9727 44H71.5098L81.2656 18.4062H83.498L83.4453 20.6738ZM90.5469 44L82.0566 20.6738L82.0039 18.4062H84.2363L94.0273 44H90.5469ZM90.1074 34.5254V37.3027H75.7285V34.5254H90.1074ZM100.496 17V44H97.2266V17H100.496ZM108.969 28.6367V51.3125H105.699V24.9805H108.688L108.969 28.6367ZM121.783 34.332V34.7012C121.783 36.084 121.619 37.3672 121.291 38.5508C120.963 39.7227 120.482 40.7422 119.85 41.6094C119.229 42.4766 118.461 43.1504 117.547 43.6309C116.633 44.1113 115.584 44.3516 114.4 44.3516C113.193 44.3516 112.127 44.1523 111.201 43.7539C110.275 43.3555 109.49 42.7754 108.846 42.0137C108.201 41.252 107.686 40.3379 107.299 39.2715C106.924 38.2051 106.666 37.0039 106.525 35.668V33.6992C106.666 32.293 106.93 31.0332 107.316 29.9199C107.703 28.8066 108.213 27.8574 108.846 27.0723C109.49 26.2754 110.27 25.6719 111.184 25.2617C112.098 24.8398 113.152 24.6289 114.348 24.6289C115.543 24.6289 116.604 24.8633 117.529 25.332C118.455 25.7891 119.234 26.4453 119.867 27.3008C120.5 28.1562 120.975 29.1816 121.291 30.377C121.619 31.5605 121.783 32.8789 121.783 34.332ZM118.514 34.7012V34.332C118.514 33.3828 118.414 32.4922 118.215 31.6602C118.016 30.8164 117.705 30.0781 117.283 29.4453C116.873 28.8008 116.346 28.2969 115.701 27.9336C115.057 27.5586 114.289 27.3711 113.398 27.3711C112.578 27.3711 111.863 27.5117 111.254 27.793C110.656 28.0742 110.146 28.4551 109.725 28.9355C109.303 29.4043 108.957 29.9434 108.688 30.5527C108.43 31.1504 108.236 31.7715 108.107 32.416V36.9688C108.342 37.7891 108.67 38.5625 109.092 39.2891C109.514 40.0039 110.076 40.584 110.779 41.0293C111.482 41.4629 112.367 41.6797 113.434 41.6797C114.312 41.6797 115.068 41.498 115.701 41.1348C116.346 40.7598 116.873 40.25 117.283 39.6055C117.705 38.9609 118.016 38.2227 118.215 37.3906C118.414 36.5469 118.514 35.6504 118.514 34.7012ZM129.184 17V44H125.932V17H129.184ZM128.41 33.7695L127.057 33.7168C127.068 32.416 127.262 31.2148 127.637 30.1133C128.012 29 128.539 28.0332 129.219 27.2129C129.898 26.3926 130.707 25.7598 131.645 25.3145C132.594 24.8574 133.643 24.6289 134.791 24.6289C135.729 24.6289 136.572 24.7578 137.322 25.0156C138.072 25.2617 138.711 25.6602 139.238 26.2109C139.777 26.7617 140.188 27.4766 140.469 28.3555C140.75 29.2227 140.891 30.2832 140.891 31.5371V44H137.621V31.502C137.621 30.5059 137.475 29.709 137.182 29.1113C136.889 28.502 136.461 28.0625 135.898 27.793C135.336 27.5117 134.645 27.3711 133.824 27.3711C133.016 27.3711 132.277 27.541 131.609 27.8809C130.953 28.2207 130.385 28.6895 129.904 29.2871C129.436 29.8848 129.066 30.5703 128.797 31.3438C128.539 32.1055 128.41 32.9141 128.41 33.7695ZM144.898 34.7012V34.2969C144.898 32.9258 145.098 31.6543 145.496 30.4824C145.895 29.2988 146.469 28.2734 147.219 27.4062C147.969 26.5273 148.877 25.8477 149.943 25.3672C151.01 24.875 152.205 24.6289 153.529 24.6289C154.865 24.6289 156.066 24.875 157.133 25.3672C158.211 25.8477 159.125 26.5273 159.875 27.4062C160.637 28.2734 161.217 29.2988 161.615 30.4824C162.014 31.6543 162.213 32.9258 162.213 34.2969V34.7012C162.213 36.0723 162.014 37.3438 161.615 38.5156C161.217 39.6875 160.637 40.7129 159.875 41.5918C159.125 42.459 158.217 43.1387 157.15 43.6309C156.096 44.1113 154.9 44.3516 153.564 44.3516C152.229 44.3516 151.027 44.1113 149.961 43.6309C148.895 43.1387 147.98 42.459 147.219 41.5918C146.469 40.7129 145.895 39.6875 145.496 38.5156C145.098 37.3438 144.898 36.0723 144.898 34.7012ZM148.15 34.2969V34.7012C148.15 35.6504 148.262 36.5469 148.484 37.3906C148.707 38.2227 149.041 38.9609 149.486 39.6055C149.943 40.25 150.512 40.7598 151.191 41.1348C151.871 41.498 152.662 41.6797 153.564 41.6797C154.455 41.6797 155.234 41.498 155.902 41.1348C156.582 40.7598 157.145 40.25 157.59 39.6055C158.035 38.9609 158.369 38.2227 158.592 37.3906C158.826 36.5469 158.943 35.6504 158.943 34.7012V34.2969C158.943 33.3594 158.826 32.4746 158.592 31.6426C158.369 30.7988 158.029 30.0547 157.572 29.4102C157.127 28.7539 156.564 28.2383 155.885 27.8633C155.217 27.4883 154.432 27.3008 153.529 27.3008C152.639 27.3008 151.854 27.4883 151.174 27.8633C150.506 28.2383 149.943 28.7539 149.486 29.4102C149.041 30.0547 148.707 30.7988 148.484 31.6426C148.262 32.4746 148.15 33.3594 148.15 34.2969ZM169.543 29.041V44H166.291V24.9805H169.367L169.543 29.041ZM168.77 33.7695L167.416 33.7168C167.428 32.416 167.621 31.2148 167.996 30.1133C168.371 29 168.898 28.0332 169.578 27.2129C170.258 26.3926 171.066 25.7598 172.004 25.3145C172.953 24.8574 174.002 24.6289 175.15 24.6289C176.088 24.6289 176.932 24.7578 177.682 25.0156C178.432 25.2617 179.07 25.6602 179.598 26.2109C180.137 26.7617 180.547 27.4766 180.828 28.3555C181.109 29.2227 181.25 30.2832 181.25 31.5371V44H177.98V31.502C177.98 30.5059 177.834 29.709 177.541 29.1113C177.248 28.502 176.82 28.0625 176.258 27.793C175.695 27.5117 175.004 27.3711 174.184 27.3711C173.375 27.3711 172.637 27.541 171.969 27.8809C171.312 28.2207 170.744 28.6895 170.264 29.2871C169.795 29.8848 169.426 30.5703 169.156 31.3438C168.898 32.1055 168.77 32.9141 168.77 33.7695ZM197.264 38.9551C197.264 38.4863 197.158 38.0527 196.947 37.6543C196.748 37.2441 196.332 36.875 195.699 36.5469C195.078 36.207 194.141 35.9141 192.887 35.668C191.832 35.4453 190.877 35.1816 190.021 34.877C189.178 34.5723 188.457 34.2031 187.859 33.7695C187.273 33.3359 186.822 32.8262 186.506 32.2402C186.189 31.6543 186.031 30.9688 186.031 30.1836C186.031 29.4336 186.195 28.7246 186.523 28.0566C186.863 27.3887 187.338 26.7969 187.947 26.2812C188.568 25.7656 189.312 25.3613 190.18 25.0684C191.047 24.7754 192.014 24.6289 193.08 24.6289C194.604 24.6289 195.904 24.8984 196.982 25.4375C198.061 25.9766 198.887 26.6973 199.461 27.5996C200.035 28.4902 200.322 29.4805 200.322 30.5703H197.07C197.07 30.043 196.912 29.5332 196.596 29.041C196.291 28.5371 195.84 28.1211 195.242 27.793C194.656 27.4648 193.936 27.3008 193.08 27.3008C192.178 27.3008 191.445 27.4414 190.883 27.7227C190.332 27.9922 189.928 28.3379 189.67 28.7598C189.424 29.1816 189.301 29.627 189.301 30.0957C189.301 30.4473 189.359 30.7637 189.477 31.0449C189.605 31.3145 189.828 31.5664 190.145 31.8008C190.461 32.0234 190.906 32.2344 191.48 32.4336C192.055 32.6328 192.787 32.832 193.678 33.0312C195.236 33.3828 196.52 33.8047 197.527 34.2969C198.535 34.7891 199.285 35.3926 199.777 36.1074C200.27 36.8223 200.516 37.6895 200.516 38.709C200.516 39.541 200.34 40.3027 199.988 40.9941C199.648 41.6855 199.15 42.2832 198.494 42.7871C197.85 43.2793 197.076 43.666 196.174 43.9473C195.283 44.2168 194.281 44.3516 193.168 44.3516C191.492 44.3516 190.074 44.0527 188.914 43.4551C187.754 42.8574 186.875 42.084 186.277 41.1348C185.68 40.1855 185.381 39.1836 185.381 38.1289H188.65C188.697 39.0195 188.955 39.7285 189.424 40.2559C189.893 40.7715 190.467 41.1406 191.146 41.3633C191.826 41.5742 192.5 41.6797 193.168 41.6797C194.059 41.6797 194.803 41.5625 195.4 41.3281C196.01 41.0938 196.473 40.7715 196.789 40.3613C197.105 39.9512 197.264 39.4824 197.264 38.9551ZM203.926 34.7012V34.2969C203.926 32.9258 204.125 31.6543 204.523 30.4824C204.922 29.2988 205.496 28.2734 206.246 27.4062C206.996 26.5273 207.904 25.8477 208.971 25.3672C210.037 24.875 211.232 24.6289 212.557 24.6289C213.893 24.6289 215.094 24.875 216.16 25.3672C217.238 25.8477 218.152 26.5273 218.902 27.4062C219.664 28.2734 220.244 29.2988 220.643 30.4824C221.041 31.6543 221.24 32.9258 221.24 34.2969V34.7012C221.24 36.0723 221.041 37.3438 220.643 38.5156C220.244 39.6875 219.664 40.7129 218.902 41.5918C218.152 42.459 217.244 43.1387 216.178 43.6309C215.123 44.1113 213.928 44.3516 212.592 44.3516C211.256 44.3516 210.055 44.1113 208.988 43.6309C207.922 43.1387 207.008 42.459 206.246 41.5918C205.496 40.7129 204.922 39.6875 204.523 38.5156C204.125 37.3438 203.926 36.0723 203.926 34.7012ZM207.178 34.2969V34.7012C207.178 35.6504 207.289 36.5469 207.512 37.3906C207.734 38.2227 208.068 38.9609 208.514 39.6055C208.971 40.25 209.539 40.7598 210.219 41.1348C210.898 41.498 211.689 41.6797 212.592 41.6797C213.482 41.6797 214.262 41.498 214.93 41.1348C215.609 40.7598 216.172 40.25 216.617 39.6055C217.062 38.9609 217.396 38.2227 217.619 37.3906C217.854 36.5469 217.971 35.6504 217.971 34.7012V34.2969C217.971 33.3594 217.854 32.4746 217.619 31.6426C217.396 30.7988 217.057 30.0547 216.6 29.4102C216.154 28.7539 215.592 28.2383 214.912 27.8633C214.244 27.4883 213.459 27.3008 212.557 27.3008C211.666 27.3008 210.881 27.4883 210.201 27.8633C209.533 28.2383 208.971 28.7539 208.514 29.4102C208.068 30.0547 207.734 30.7988 207.512 31.6426C207.289 32.4746 207.178 33.3594 207.178 34.2969Z" fill="white"/>
</svg>
