<svg width="40" height="35" viewBox="0 0 40 35" fill="none" xmlns="http://www.w3.org/2000/svg">
<path d="M38.6719 0H0.390625C0.175781 0 0 0.175781 0 0.390625V3.51562C0 3.73047 0.175781 3.90625 0.390625 3.90625H38.6719C38.8867 3.90625 39.0625 3.73047 39.0625 3.51562V0.390625C39.0625 0.175781 38.8867 0 38.6719 0ZM38.6719 30.4688H0.390625C0.175781 30.4688 0 30.6445 0 30.8594V33.9844C0 34.1992 0.175781 34.375 0.390625 34.375H38.6719C38.8867 34.375 39.0625 34.1992 39.0625 33.9844V30.8594C39.0625 30.6445 38.8867 30.4688 38.6719 30.4688ZM38.6719 15.2344H0.390625C0.175781 15.2344 0 15.4102 0 15.625V18.75C0 18.9648 0.175781 19.1406 0.390625 19.1406H38.6719C38.8867 19.1406 39.0625 18.9648 39.0625 18.75V15.625C39.0625 15.4102 38.8867 15.2344 38.6719 15.2344Z" fill="white"/>
</svg>
